# xmcd
#
# Track frame offsets:
#	150
#	15722
#	34618
#	47745
#	64782
#	86585
#	105992
#	119121
#	139655
#	154405
#	167980
#	186381
#	202671
#	221629
#	239283
#	254768
#	274213
#
# Disc length: 3872 seconds
#
# Revision: 1
# Processed by: cddbd v1.5.2PL0 Copyright (c) Steve Scherf et al.
# Submitted via: audiograbber 1.83.01
#
DISCID=fb0f1e11
DTITLE=Various Artist - Joulu-Synteesi Vol. 2 - JouluBuumi
DYEAR=2004
DGENRE=Dance
TTITLE0=Liquid - Sika
TTITLE1=T. Bird - Heinillä Härkien Kaukalon
TTITLE2=Greg Orion - Maa On Niin Kaunis
TTITLE3=T. Bird - En Etsi Valtaa Loistoa
TTITLE4=Mira - Joulumaa
TTITLE5=T. Bird and Otto - Joulupuu On Rakennettu
TTITLE6=Ewing Feat. Greg Orion - Me Käymme Joulun Viettohon
TTITLE7=T. Bird - Jouluyö, Juhlayö
TTITLE8=Mira - Talven Ihmemaa
TTITLE9=T. Bird - Joulupukki Matkaan Jo Käy
TTITLE10=T. Bird - Valkea Joulu
TTITLE11=Bounce Brothers - Nisse - polkka
TTITLE12=J. R. Nova Feat. F. Rogman - Jouluterveiset Pohjolasta
TTITLE13=Bounce Brothers - Kun Joulupukki Suukon Sai
TTITLE14=Liquid - Sika (Karaoke Mix)
TTITLE15=T. Bird and Otto - Joulupuu On Rakennettu (Karaoke Mix)
TTITLE16=Bounce Brothers - Nisse-polkka (Karaoke Mix)
EXTD=TR.
EXTT0=
EXTT1=
EXTT2=
EXTT3=
EXTT4=
EXTT5=
EXTT6=
EXTT7=
EXTT8=
EXTT9=
EXTT10=
EXTT11=
EXTT12=
EXTT13=
EXTT14=
EXTT15=
EXTT16=
PLAYORDER=
